<?xml version="1.0" encoding="UTF-8" standalone="no"?><!DOCTYPE svg PUBLIC "-//W3C//DTD SVG 1.1//EN" "http://www.w3.org/Graphics/SVG/1.1/DTD/svg11.dtd"><svg width="100%" height="100%" viewBox="0 0 24 34" version="1.1" xmlns="http://www.w3.org/2000/svg" xmlns:xlink="http://www.w3.org/1999/xlink" xml:space="preserve" xmlns:serif="http://www.serif.com/" style="fill-rule:evenodd;clip-rule:evenodd;stroke-linejoin:round;stroke-miterlimit:2;"><path d="M12,0c6.623,0 12,5.377 12,12c0,6.623 -10.01,21.362 -12,21.362c-1.99,0 -12,-14.739 -12,-21.362c0,-6.623 5.377,-12 12,-12Zm0,3.812c4.328,0 7.842,3.514 7.842,7.842c-0,4.328 -3.514,7.842 -7.842,7.842c-4.328,0 -7.842,-3.514 -7.842,-7.842c0,-4.328 3.514,-7.842 7.842,-7.842Z" style="fill:#245652;"/><rect x="4.479" y="3.819" width="15.043" height="15.622" style="fill:none;"/><path d="M17.02,11.097l-0.982,-0.947l-0.871,-1.809c-0.152,-0.256 -0.423,-0.412 -0.713,-0.411l-4.908,0c-0.29,-0.001 -0.561,0.155 -0.713,0.411l-0.871,1.809l-0.982,0.947c-0.08,0.078 -0.126,0.188 -0.126,0.302l-0,3.52c-0,0.226 0.178,0.411 0.396,0.411l1.583,0c0.158,0 0.396,-0.164 0.396,-0.329l-0,-0.493l5.542,-0l0,0.411c0,0.164 0.158,0.411 0.317,0.411l1.662,0c0.218,0 0.396,-0.185 0.396,-0.411l0,-3.52c0,-0.114 -0.046,-0.224 -0.126,-0.302Zm-7.395,-2.345l4.75,0l0.792,1.645l-6.334,-0l0.792,-1.645Zm0.396,3.783c-0,0.164 -0.238,0.329 -0.396,0.329l-1.663,-0c-0.158,-0 -0.317,-0.247 -0.317,-0.412l0,-0.904c0.08,-0.247 0.238,-0.411 0.476,-0.329l1.583,0.329c0.158,-0 0.317,0.247 0.317,0.411l-0,0.576Zm6.334,-0.083c-0,0.165 -0.159,0.412 -0.317,0.412l-1.663,-0c-0.158,-0 -0.396,-0.165 -0.396,-0.329l0,-0.576c0,-0.164 0.159,-0.411 0.317,-0.411l1.583,-0.329c0.238,-0.082 0.396,0.082 0.476,0.329l-0,0.904Z" style="fill:#245652;fill-rule:nonzero;"/></svg>